<svg width="1500" height="1500" viewBox="0 0 1500 1500" fill="none" xmlns="http://www.w3.org/2000/svg">
<mask id="mask0" mask-type="alpha" maskUnits="userSpaceOnUse" x="0" y="0" width="1500" height="1500">
<path d="M750 0C166.667 0 0 166.667 0 750C0 1333.33 167.083 1500 750 1500C1332.92 1500 1500 1333.33 1500 750C1500 166.667 1332.92 0 750 0Z" fill="white"/>
</mask>
<g mask="url(#mask0)">
<path fill-rule="evenodd" clip-rule="evenodd" d="M1875 -375H-375V1286.6C-372.216 1284.05 -369.039 1281.12 -365.436 1277.76C-346.97 1260.54 -319.346 1234.08 -280.445 1195.6C-202.655 1118.65 -80.1699 994.061 103.709 800.047C171.704 728.304 237.269 692.394 305.549 694.865C371.45 697.251 425.453 735.431 470.076 773.553C487.887 788.769 506.004 805.633 523.675 822.083C528.607 826.674 533.504 831.232 538.35 835.714C561.116 856.767 583.722 877.048 607.528 895.368C654.968 931.878 704.792 958.704 763.507 965.81C829.731 973.823 892.424 931.015 968.835 844.078C998.244 810.617 1027.23 773.595 1057.79 734.57L1057.91 734.417C1065.83 724.306 1073.85 714.062 1082.02 703.71C1121.08 654.172 1162.79 602.927 1208.12 557.859C1298.63 467.876 1410.89 395.379 1556.24 413.887C1653.14 426.226 1757.91 478.355 1875 580.332V-375ZM1875 717.234C1737.04 579.401 1629.02 523.963 1543.61 513.086C1443.3 500.314 1360.24 547.631 1278.63 628.775C1237.9 669.271 1199.34 716.418 1160.54 765.628C1152.89 775.331 1145.2 785.151 1137.48 795.011L1137.44 795.06C1106.69 834.348 1075.42 874.284 1043.95 910.095C967.451 997.128 873.269 1079.82 751.493 1065.09C668.34 1055.02 601.793 1017.14 546.539 974.617C518.997 953.421 493.676 930.605 470.456 909.133C465.006 904.093 459.714 899.168 454.544 894.356C437.16 878.178 421.151 863.279 405.122 849.585C362.587 813.247 331.29 795.863 301.931 794.8C274.951 793.823 235.296 806.579 176.291 868.836C-8.08423 1063.37 -131.349 1188.78 -210.121 1266.7C-249.5 1305.65 -277.86 1332.83 -297.245 1350.9C-315.168 1367.61 -327.97 1378.98 -334.446 1383.49L-375 1325.19V1875H1875V717.234Z" fill="#7952B3"/>
</g>
</svg>
