<?xml version="1.0" encoding="UTF-8"?>
<svg width="400px" height="260px" viewBox="0 0 400 260" version="1.1" xmlns="http://www.w3.org/2000/svg" xmlns:xlink="http://www.w3.org/1999/xlink">
    <!-- Generator: Sketch 51.1 (57501) - http://www.bohemiancoding.com/sketch -->
    <title>Untitled</title>
    <desc>Created with Sketch.</desc>
    <defs>
        <rect id="path-1" x="0" y="0" width="400" height="260" rx="20"></rect>
    </defs>
    <g id="Page-1" stroke="none" stroke-width="1" fill="none" fill-rule="evenodd">
        <g id="Group-2-Copy" transform="translate(-27.000000, -16.000000)">
            <g id="logo" transform="translate(27.000000, 16.000000)">
                <mask id="mask-2" fill="white">
                    <use xlink:href="#path-1"></use>
                </mask>
                <g id="Mask"></g>
                <path d="M425.360042,77.6159329 C436.004271,96.9469365 436.004271,120.280254 425.360042,139.611257 L528.886719,344.359375 C517.372349,365.271124 299.927015,322.613793 275.809605,322.613793 L118.41583,322.613793 C94.2984123,322.613793 72.1137556,309.593905 60.5973829,288.682156 L-26.515625,322.613793 L150.741474,128.069239 L238.198948,176.866617 C247.351494,182.886906 259.607689,181.282418 266.849523,173.11556 L415.296875,24.1992187 L425.360042,77.6159329 Z M131.229969,71.4636964 L-37,259.09375 L-29.0168318,165.99786 C-39.6610561,146.666857 -39.6610561,123.33354 -29.0168318,104.002536 L-48.1640625,-69 C-36.6496948,-89.9117487 94.9545969,-79 119.07402,-79 L276.465794,-79 C300.585204,-79 451.485631,-89.9117487 463,-69 L387.863281,-27.2851562 L247.791137,115.544555 L160.680525,66.7471761 C151.128999,60.4617805 138.279337,62.5193239 131.229969,71.4636964 Z" id="Logo" fill="#312654" fill-rule="nonzero" mask="url(#mask-2)"></path>
            </g>
        </g>
    </g>
</svg>