<?xml version="1.0" encoding="UTF-8"?>
<svg width="261px" height="261px" viewBox="0 0 261 261" version="1.1" xmlns="http://www.w3.org/2000/svg" xmlns:xlink="http://www.w3.org/1999/xlink">
    <!-- Generator: Sketch 51.1 (57501) - http://www.bohemiancoding.com/sketch -->
    <title>logo</title>
    <defs>
        <path d="M287.05077,115.445275 C293.64974,127.640067 293.64974,142.359683 287.05077,154.554475 L230.18083,248.594528 C223.04241,261.786519 209.28762,270 194.33585,270 L96.7583942,270 C81.8066192,270 68.0530742,261.786519 60.9134123,248.594528 L41.9443342,217.164639 L116.79892,147.273295 L171.01884,178.056688 C176.69303,181.854534 184.29135,180.842357 188.78098,175.690367 L270.87964,87.930551 L287.05077,115.445275 Z M104.295436,94.918687 L22.3223203,183.557137 L4.94922525,154.554725 C-1.64974175,142.359933 -1.64974175,127.640317 4.94922525,115.445525 L60.9142822,21.405472 C68.0527012,8.213481 81.8062463,0 96.7592643,0 L194.33548,0 C209.28849,0 223.04204,8.213481 230.18046,21.405472 L249.863,53.953622 L176.55841,122.726705 L122.55353,91.943312 C116.63199,87.978226 108.665745,89.276209 104.295436,94.918687 Z" id="path-1"></path>
        <linearGradient x1="100%" y1="19.947318%" x2="0%" y2="71.3242337%" id="linearGradient-3">
            <stop stop-color="#8E2DE2" offset="0%"></stop>
            <stop stop-color="#4500E0" offset="100%"></stop>
        </linearGradient>
    </defs>
    <g id="Page-1" stroke="none" stroke-width="1" fill="none" fill-rule="evenodd">
        <g id="logo" transform="translate(-15.000000, -5.000000)">
            <g id="Oval">
                <mask id="mask-2" fill="white">
                    <use xlink:href="#path-1"></use>
                </mask>
                <g id="Mask" fill-rule="nonzero"></g>
                <circle fill="url(#linearGradient-3)" mask="url(#mask-2)" cx="145.5" cy="135.5" r="130.5"></circle>
            </g>
        </g>
    </g>
</svg>
