<?xml version="1.0" standalone="no"?>
<!DOCTYPE svg PUBLIC "-//W3C//DTD SVG 20010904//EN"
 "http://www.w3.org/TR/2001/REC-SVG-20010904/DTD/svg10.dtd">
<svg version="1.0" xmlns="http://www.w3.org/2000/svg"
 width="500.000000pt" height="500.000000pt" viewBox="0 0 500.000000 500.000000"
 preserveAspectRatio="xMidYMid meet">
<metadata>
Created by potrace 1.11, written by Peter Selinger 2001-2013
</metadata>
<g transform="translate(0.000000,500.000000) scale(0.100000,-0.100000)"
fill="#000000" stroke="none">
<path d="M134 4106 c-45 -20 -99 -80 -112 -125 -18 -58 -17 -2578 0 -2559 16
16 232 260 274 307 16 18 40 45 54 60 14 14 99 109 190 211 90 102 171 192
179 201 9 9 45 49 81 89 36 40 70 78 75 84 6 6 48 54 95 106 46 52 89 100 95
106 5 6 37 41 70 79 33 37 71 80 85 95 27 29 143 159 173 194 10 12 51 57 91
101 40 44 88 98 107 120 102 120 171 159 274 156 74 -1 54 8 490 -236 28 -15
124 -69 215 -120 409 -229 494 -277 507 -287 8 -6 34 14 85 65 154 157 867
884 956 976 52 53 160 162 240 244 l147 147 -2170 0 c-1791 -1 -2175 -3 -2201
-14z"/>
<path d="M4142 2780 c-597 -601 -857 -855 -891 -874 -66 -35 -147 -40 -221
-14 -30 12 -62 27 -71 34 -8 8 -18 14 -21 14 -4 0 -37 17 -75 39 -37 21 -90
51 -118 66 -27 15 -180 101 -340 190 -159 89 -312 175 -340 190 -27 15 -79 45
-115 65 -47 26 -69 33 -75 26 -9 -10 -172 -191 -200 -222 -5 -6 -48 -53 -95
-104 -47 -51 -92 -100 -100 -110 -8 -9 -56 -62 -106 -116 -50 -54 -140 -153
-200 -219 -60 -66 -111 -122 -114 -125 -3 -3 -45 -50 -95 -105 -49 -55 -97
-107 -105 -115 -8 -8 -35 -37 -59 -65 -45 -50 -175 -193 -282 -309 -31 -34
-73 -80 -94 -104 l-37 -42 2233 2 c2199 3 2234 3 2264 23 47 31 84 76 95 116
7 23 9 497 8 1321 l-3 1285 -843 -847z"/>
</g>
</svg>
